<svg width="20" height="18" viewBox="0 0 20 18" fill="none" xmlns="http://www.w3.org/2000/svg">
<path d="M20 2.96154C19.25 3.35385 18.5 3.48462 17.625 3.61538C18.5 3.09231 19.125 2.30769 19.375 1.26154C18.625 1.78462 17.75 2.04615 16.75 2.30769C16 1.52308 14.875 1 13.75 1C11.625 1 9.75 2.96154 9.75 5.31538C9.75 5.70769 9.75 5.96923 9.875 6.23077C6.5 6.1 3.375 4.4 1.375 1.78462C1 2.43846 0.875 3.09231 0.875 4.00769C0.875 5.44615 1.625 6.75385 2.75 7.53846C2.125 7.53846 1.5 7.27692 0.875 7.01538C0.875 9.10769 2.25 10.8077 4.125 11.2C3.75 11.3308 3.375 11.3308 3 11.3308C2.75 11.3308 2.5 11.3308 2.25 11.2C2.75 12.9 4.25 14.2077 6.125 14.2077C4.75 15.3846 3 16.0385 1 16.0385C0.625 16.0385 0.375 16.0385 0 16.0385C1.875 17.2154 4 18 6.25 18C13.75 18 17.875 11.4615 17.875 5.83846C17.875 5.70769 17.875 5.44615 17.875 5.31538C18.75 4.66154 19.5 3.87692 20 2.96154Z" fill="#242B5F"/>
</svg>
