<svg width="21" height="19" viewBox="0 0 21 19" fill="none" xmlns="http://www.w3.org/2000/svg">
<path d="M21 2.71443C20.2125 3.12157 19.425 3.25728 18.5063 3.393C19.425 2.85014 20.0812 2.03585 20.3438 0.95014C19.5562 1.493 18.6375 1.76443 17.5875 2.03585C16.8 1.22157 15.6187 0.678711 14.4375 0.678711C12.2063 0.678711 10.2375 2.71443 10.2375 5.15728C10.2375 5.56442 10.2375 5.83585 10.3687 6.10728C6.825 5.97157 3.54375 4.20728 1.44375 1.493C1.05 2.17157 0.91875 2.85014 0.91875 3.80014C0.91875 5.293 1.70625 6.65014 2.8875 7.46443C2.23125 7.46443 1.575 7.193 0.91875 6.92157C0.91875 9.093 2.3625 10.8573 4.33125 11.2644C3.9375 11.4001 3.54375 11.4001 3.15 11.4001C2.8875 11.4001 2.625 11.4001 2.3625 11.2644C2.8875 13.0287 4.4625 14.3859 6.43125 14.3859C4.9875 15.6073 3.15 16.2859 1.05 16.2859C0.65625 16.2859 0.39375 16.2859 0 16.2859C1.96875 17.5073 4.2 18.3216 6.5625 18.3216C14.4375 18.3216 18.7687 11.5359 18.7687 5.70014C18.7687 5.56443 18.7687 5.293 18.7687 5.15728C19.6875 4.47871 20.475 3.66443 21 2.71443Z" fill="white"/>
</svg>
