<svg width="29" height="20" viewBox="0 0 29 20" fill="none" xmlns="http://www.w3.org/2000/svg">
<path fill-rule="evenodd" clip-rule="evenodd" d="M24.389 0.167273C26.1272 0.265455 26.9809 0.523636 27.7675 1.92727C28.5868 3.32909 29 5.74364 29 10.0018V10.0109C29 14.2436 28.5868 16.6764 27.7693 18.0636C26.9827 19.4673 26.129 19.7218 24.3908 19.84C22.6526 19.94 18.2863 20 14.5036 20C10.7137 20 6.34556 19.94 4.60919 19.8382C2.87463 19.72 2.02094 19.4655 1.22706 18.0618C0.416875 16.6745 0 14.2418 0 10.0055V10V9.99454C0 5.74364 0.416875 3.32909 1.22706 1.92727C2.02094 0.521818 2.87644 0.265455 4.611 0.165455C6.34556 0.0490909 10.7137 0 14.5036 0C18.2863 0 22.6526 0.0490909 24.389 0.167273ZM10.9375 4.83997V15.4545L19.9375 10L10.9375 4.54545V4.83997Z" fill="#242B5F"/>
</svg>
