<svg width="21" height="21" viewBox="0 0 21 21" fill="none" xmlns="http://www.w3.org/2000/svg">
<path d="M20.0812 0H0.91875C0.39375 0 0 0.39375 0 0.91875V20.2125C0 20.6062 0.39375 21 0.91875 21H10.5V14.4375H7.875V10.5H10.5V7.875C10.5 5.11875 12.075 3.9375 14.4375 3.9375C15.6187 3.9375 16.8 3.9375 17.0625 3.9375V7.875H15.75C14.9625 7.875 14.4375 8.4 14.4375 9.1875V10.5H17.85L17.0625 14.4375H14.4375V21H20.0812C20.6062 21 21 20.6062 21 20.0812V0.91875C21 0.39375 20.6062 0 20.0812 0Z" fill="white"/>
</svg>
